<svg fill="none" height="100%" width="100%" viewBox="0 0 600 600" xmlns:xlink="http://www.w3.org/1999/xlink" xmlns="http://www.w3.org/2000/svg"><defs><clipPath id="i0"><rect height="600" width="600" y="0" x="0" /></clipPath><g id="i1"><g transform="matrix(1,0,0,1,299.89,304.75)" opacity="0.6" id="i2"><g id="i2"><rect ry="19" rx="19" height="319.5" width="245.78" y="-159.75" x="-122.89" fill="#fafafa" /></g></g><g transform="matrix(1,0,0,1,255,234.5)" id="i2"><g id="i2"><rect ry="12.5" rx="12.5" height="25" width="90" y="-12.5" x="-45" fill="#e1e9f2" /></g></g><g transform="matrix(1,0,0,1,270.5,302.5)" id="i3"><g id="i3"><rect ry="12.5" rx="12.5" height="25" width="121" y="-12.5" x="-60.5" fill="#e1e9f2" /></g></g><g transform="matrix(1,0,0,1,249,351.5)" id="i4"><g id="i4"><rect ry="12.5" rx="12.5" height="25" width="78" y="-12.5" x="-39" fill="#e1e9f2" /></g></g><g transform="matrix(1,0,0,1,348.5,351.5)" id="i5"><g id="i5"><rect ry="12.5" rx="12.5" height="25" width="81" y="-12.5" x="-40.5" fill="#e1e9f2" /></g></g><g transform="matrix(1,0,0,1,368.5,302.5)" id="i6"><g id="i6"><rect ry="12.5" rx="12.5" height="25" width="41" y="-12.5" x="-20.5" fill="#e1e9f2" /></g></g><g transform="matrix(1,0,0,1,274,400.5)" id="i7"><g id="i7"><rect ry="12.5" rx="12.5" height="25" width="128" y="-12.5" x="-64" fill="#e1e9f2" /></g></g></g><g id="i8"><g transform="matrix(1,0,0,1,299.89,304.75)" id="i9"><g id="i2"><rect ry="19" rx="19" height="319.5" width="245.78" y="-159.75" x="-122.89" fill="#fafafa" /></g></g><g transform="matrix(1,0,0,1,255,234.5)" id="i10"><g id="i2"><rect ry="12.5" rx="12.5" height="25" width="90" y="-12.5" x="-45" fill="#46a951" /></g></g><g transform="matrix(1,0,0,1,270.5,302.5)" id="i11"><g id="i3"><rect ry="12.5" rx="12.5" height="25" width="121" y="-12.5" x="-60.5" fill="#46a951" /></g></g><g transform="matrix(1,0,0,1,249,351.5)" id="i12"><g id="i4"><rect ry="12.5" rx="12.5" height="25" width="78" y="-12.5" x="-39" fill="#46a951" /></g></g><g transform="matrix(1,0,0,1,348.5,351.5)" id="i13"><g id="i5"><rect ry="12.5" rx="12.5" height="25" width="81" y="-12.5" x="-40.5" fill="#46a951" /></g></g><g transform="matrix(1,0,0,1,368.5,302.5)" id="i14"><g id="i6"><rect ry="12.5" rx="12.5" height="25" width="41" y="-12.5" x="-20.5" fill="#46a951" /></g></g><g transform="matrix(1,0,0,1,274,400.5)" id="i15"><g id="i7"><rect ry="12.5" rx="12.5" height="25" width="128" y="-12.5" x="-64" fill="#46a951" /></g></g></g><mask id="i16"><rect fill="white" height="100%" width="100%" /><path fill="white" d="M448.801,109C448.801,109,153,109,153,109C153,109,153,479.957,153,479.957C153,479.957,448.801,479.957,448.801,479.957C448.801,479.957,448.801,109,448.801,109Z"><animate repeatCount="indefinite" begin="0s" keySplines="0.272 0 0.364 1; 0.631 0 0.73 1; 0 0 1 1" calcMode="spline" fill="freeze" dur="3.783s" keyTimes="0; 0.484581; 0.969163; 1" values="M448.801,109C448.801,109,153,109,153,109C153,109,153,479.957,153,479.957C153,479.957,448.801,479.957,448.801,479.957C448.801,479.957,448.801,109,448.801,109Z; M448.801,109C448.801,109,153,109,153,109C153,109,153,129.957,153,129.957C153,129.957,448.801,129.957,448.801,129.957C448.801,129.957,448.801,109,448.801,109Z; M448.801,109C448.801,109,153,109,153,109C153,109,153,479.957,153,479.957C153,479.957,448.801,479.957,448.801,479.957C448.801,479.957,448.801,109,448.801,109Z; M448.801,109C448.801,109,153,109,153,109C153,109,153,479.957,153,479.957C153,479.957,448.801,479.957,448.801,479.957C448.801,479.957,448.801,109,448.801,109Z" attributeName="d" /></path></mask><linearGradient id="i17" gradientUnits="userSpaceOnUse" spreadMethod="pad" x2="0" y2="22.5" x1="0" y1="-22.5"><stop stop-opacity="0" offset="0%" stop-color="#1870d7" /><stop stop-opacity="0.2" offset="25.2%" stop-color="#1870d7" /><stop stop-opacity="0.396" offset="50%" stop-color="#1870d7" /><stop stop-opacity="0.4" offset="50.5%" stop-color="#1870d7" /><stop stop-opacity="0.7" offset="75.2%" stop-color="#1870d7" /><stop offset="100%" stop-color="#1870d7" /></linearGradient><linearGradient id="i18" gradientUnits="userSpaceOnUse" spreadMethod="pad" x2="0" y2="22.5" x1="0" y1="-22.5"><stop stop-opacity="0" offset="0%" stop-color="#1870d7" /><stop stop-opacity="0.2" offset="25.2%" stop-color="#1870d7" /><stop stop-opacity="0.396" offset="50%" stop-color="#1870d7" /><stop stop-opacity="0.4" offset="50.5%" stop-color="#1870d7" /><stop stop-opacity="0.7" offset="75.2%" stop-color="#1870d7" /><stop offset="100%" stop-color="#1870d7" /></linearGradient></defs><g transform="matrix(1,0,0,1,0,0)" id="i19"><g clip-path="url(#i0)"><g transform="matrix(1,0,0,1,299.89,304.75)" opacity="0.6"><g><rect ry="19" rx="19" height="319.5" width="245.78" y="-159.75" x="-122.89" fill="#fafafa" /></g></g><g transform="matrix(1,0,0,1,255,234.5)"><g><rect ry="12.5" rx="12.5" height="25" width="90" y="-12.5" x="-45" fill="#e1e9f2" /></g></g><g transform="matrix(1,0,0,1,270.5,302.5)"><g><rect ry="12.5" rx="12.5" height="25" width="121" y="-12.5" x="-60.5" fill="#e1e9f2" /></g></g><g transform="matrix(1,0,0,1,249,351.5)"><g><rect ry="12.5" rx="12.5" height="25" width="78" y="-12.5" x="-39" fill="#e1e9f2" /></g></g><g transform="matrix(1,0,0,1,348.5,351.5)"><g><rect ry="12.5" rx="12.5" height="25" width="81" y="-12.5" x="-40.5" fill="#e1e9f2" /></g></g><g transform="matrix(1,0,0,1,368.5,302.5)"><g><rect ry="12.5" rx="12.5" height="25" width="41" y="-12.5" x="-20.5" fill="#e1e9f2" /></g></g><g transform="matrix(1,0,0,1,274,400.5)"><g><rect ry="12.5" rx="12.5" height="25" width="128" y="-12.5" x="-64" fill="#e1e9f2" /></g></g></g></g><g transform="matrix(1,0,0,1,0,0)" id="i20"><g mask="url(#i16)" id="i21"><g clip-path="url(#i0)"><g transform="matrix(1,0,0,1,299.89,304.75)"><g><rect ry="19" rx="19" height="319.5" width="245.78" y="-159.75" x="-122.89" fill="#fafafa" /></g></g><g transform="matrix(1,0,0,1,255,234.5)"><g><rect ry="12.5" rx="12.5" height="25" width="90" y="-12.5" x="-45" fill="#46a951" /></g></g><g transform="matrix(1,0,0,1,270.5,302.5)"><g><rect ry="12.5" rx="12.5" height="25" width="121" y="-12.5" x="-60.5" fill="#46a951" /></g></g><g transform="matrix(1,0,0,1,249,351.5)"><g><rect ry="12.5" rx="12.5" height="25" width="78" y="-12.5" x="-39" fill="#46a951" /></g></g><g transform="matrix(1,0,0,1,348.5,351.5)"><g><rect ry="12.5" rx="12.5" height="25" width="81" y="-12.5" x="-40.5" fill="#46a951" /></g></g><g transform="matrix(1,0,0,1,368.5,302.5)"><g><rect ry="12.5" rx="12.5" height="25" width="41" y="-12.5" x="-20.5" fill="#46a951" /></g></g><g transform="matrix(1,0,0,1,274,400.5)"><g><rect ry="12.5" rx="12.5" height="25" width="128" y="-12.5" x="-64" fill="#46a951" /></g></g></g></g></g><g opacity="0" id="i22"><animate repeatCount="indefinite" attributeName="opacity" dur="3.783s" begin="0s" fill="freeze" values="0; 0.4; 0.4; 0; 0; 0" keyTimes="0; 0.061674; 0.392071; 0.475771; 0.973568; 1" keySplines="0.167 0 0.833 1; 0.333 0 0.667 1; 0.333 0 0.667 1; 0.333 0 0.833 1; 0 0 1 1" calcMode="spline" /><g transform="translate(300,463.5)"><animateTransform repeatCount="indefinite" type="translate" attributeName="transform" dur="3.783s" begin="0s" calcMode="spline" values="300 463.5; 300 463.5; 300 103.5; 300 463.5; 300 463.5" keyTimes="0; 0.004405; 0.488987; 0.973568; 1" keySplines="0 0 1 1; 0.271 0 0.376 1; 0.632 0 0.725 1; 0 0 1 1" fill="freeze" /><g transform="scale(1,1) translate(0,0)"><g id="i2"><rect height="45" width="300" y="-22.5" x="-150" fill="url(#i17)" /></g></g></g></g><g opacity="0" id="i23"><animate repeatCount="indefinite" attributeName="opacity" dur="3.783s" begin="0s" fill="freeze" values="0; 0; 0.4; 0.4; 0; 0" keyTimes="0; 0.528634; 0.669604; 0.876652; 0.960352; 1" keySplines="0 0 1 1; 0.333 0 0.667 1; 0.333 0 0.667 1; 0.333 0 0.667 1; 0 0 1 1" calcMode="spline" /><g transform="translate(300,463.5)"><animateTransform repeatCount="indefinite" type="translate" attributeName="transform" dur="3.783s" begin="0s" calcMode="spline" values="300 463.5; 300 463.5; 300 146.5; 300 506.5; 300 506.5" keyTimes="0; 0.004405; 0.488987; 0.973568; 1" keySplines="0 0 1 1; 0.274 0 0.374 1; 0.621 0 0.726 1; 0 0 1 1" fill="freeze" /><g transform="scale(1,-1) translate(0,0)"><g id="i2"><rect height="45" width="300" y="-22.5" x="-150" fill="url(#i18)" /></g></g></g></g><g id="i2"><g transform="translate(300,485.5)"><animateTransform repeatCount="indefinite" type="translate" attributeName="transform" dur="3.783s" begin="0s" calcMode="spline" values="300 485.5; 300 125.5; 300 485.5; 300 485.5" keyTimes="0; 0.484582; 0.969163; 1" keySplines="0.275 0 0.376 1; 0.632 0 0.725 1; 0 0 1 1" fill="freeze" /><g transform="scale(1,1) translate(0,0)"><g id="i2"><rect ry="4.5" rx="4.5" height="9" width="300" y="-4.5" x="-150" fill="#46a951" /></g></g></g></g></svg>